<svg width="180" height="180" viewBox="0 0 180 180" fill="none" xmlns="http://www.w3.org/2000/svg">
<rect width="180" height="180" fill="white"/>
<path d="M67.75 99.875H69.45C71.45 99.875 72.625 98.85 73.3 96.55L77.375 82.25H75.2L74.275 83.75C73.825 82.825 73.15 82.125 71.875 82.125H71.775C69.9 82.125 68.7 83.45 68.2 85.45L66.55 91.225C65.975 93.4 66.725 94.875 68.45 94.875H68.75C69.425 94.875 70.375 94.375 71.2 93.4L70.325 96.475C70.175 96.95 70 97.225 69.55 97.225H68.575C68.075 97.225 67.925 97 68.05 96.5L68.25 95.825H65.4L65.275 96.225C64.675 98.4 65.625 99.875 67.75 99.875ZM70 92.125C69.5 92.125 69.35 91.9 69.5 91.4L71.15 85.625C71.275 85.15 71.475 84.875 71.925 84.875H72.9C73.4 84.875 73.575 85.1 73.425 85.6L71.775 91.375C71.625 91.85 71.45 92.125 71 92.125H70ZM78.4189 96.125H78.6689C79.4939 96.125 80.3189 95.6 81.1439 94.6V96H83.2939L86.2189 85.775C86.8439 83.575 85.8689 82.125 83.7439 82.125H82.5689C80.5689 82.125 79.3689 83.15 78.7189 85.45L78.3189 86.775H80.9939L81.3939 85.375C81.5439 84.9 81.7439 84.625 82.1939 84.625H82.9439C83.4439 84.625 83.5439 84.85 83.4189 85.35L82.9939 86.8C82.8939 87.125 82.6939 87.35 82.3439 87.475L80.0189 88.325C78.3439 88.9 77.3939 89.45 76.7189 91.8L76.5189 92.475C75.8939 94.65 76.5439 96.125 78.4189 96.125ZM79.8189 93.45C79.3189 93.45 79.1689 93.225 79.2939 92.725L79.6439 91.575C79.7939 91.05 80.0439 90.675 80.4939 90.5L82.1439 89.775L81.3189 92.7C81.1689 93.175 80.9939 93.45 80.5439 93.45H79.8189ZM85.9549 96H88.9549L91.8799 85.625C92.0049 85.15 92.2049 84.875 92.6549 84.875H93.3799C93.8799 84.875 94.0549 85.1 93.9049 85.6L90.9549 96H93.9549L96.8799 85.625C97.0049 85.15 97.2049 84.875 97.6549 84.875H98.3799C98.8799 84.875 99.0549 85.1 98.9049 85.6L95.9549 96H98.9549L101.855 85.775C102.48 83.6 101.68 82.125 99.9549 82.125H99.8549C98.9049 82.125 97.7549 82.7 96.7549 83.75C96.5799 82.725 95.9299 82.125 94.9549 82.125H94.8549C93.9799 82.125 92.9549 82.7 92.0299 83.75V82.25H89.8549L85.9549 96ZM104.685 96.125H106.21C108.21 96.125 109.385 95.1 110.06 92.8L110.46 91.375H107.51L107.11 92.725C106.985 93.2 106.81 93.475 106.36 93.475H105.585C105.085 93.475 104.91 93.25 105.06 92.75L105.835 90.025H110.91L112.135 85.775C112.76 83.6 111.785 82.125 109.66 82.125H108.085C106.085 82.125 104.885 83.15 104.235 85.45L102.21 92.475C101.585 94.65 102.56 96.125 104.685 96.125ZM106.51 87.7L107.135 85.525C107.26 85.05 107.46 84.775 107.91 84.775H108.735C109.235 84.775 109.41 85 109.26 85.5L108.635 87.7H106.51Z" fill="black"/>
</svg>
