<svg width="134" height="49" viewBox="0 0 134 49" fill="none" xmlns="http://www.w3.org/2000/svg">
<path d="M27.2 34.875H30.2L31.65 29.75C32.05 30.55 32.675 31.125 33.775 31.125H33.875C35.75 31.125 36.9 29.8 37.475 27.8L39.5 20.775C40.125 18.6 39.325 17.125 37.6 17.125H37.25C36.375 17.125 35.35 17.7 34.425 18.75V17.25H32.225L27.2 34.875ZM32.775 28.375C32.275 28.375 32.125 28.15 32.25 27.65L34.275 20.625C34.4 20.15 34.6 19.875 35.05 19.875H36C36.5 19.875 36.675 20.1 36.525 20.6L34.525 27.625C34.375 28.1 34.2 28.375 33.75 28.375H32.775ZM38.9445 31H41.9445L44.9195 20.625C45.0445 20.15 45.2195 19.875 45.6695 19.875H46.1945C46.6945 19.875 46.8695 20.1 46.7195 20.6L45.9195 23.425H48.8195L49.5695 20.775C50.2695 18.325 49.5445 17.125 47.9445 17.125H47.7945C46.8695 17.125 45.9445 17.7 45.0445 18.75V17.25H42.8695L38.9445 31ZM51.6207 31.125H53.4707C55.4707 31.125 56.6457 30.1 57.3207 27.8L59.3207 20.775C59.9457 18.6 58.9707 17.125 56.8457 17.125H55.0207C53.0207 17.125 51.8207 18.15 51.1707 20.45L49.1457 27.475C48.5207 29.65 49.4957 31.125 51.6207 31.125ZM52.5957 28.475C52.0957 28.475 51.9207 28.25 52.0707 27.75L54.1457 20.525C54.2707 20.05 54.4707 19.775 54.9207 19.775H55.8707C56.3707 19.775 56.5457 20 56.3957 20.5L54.3207 27.725C54.1957 28.2 54.0207 28.475 53.5707 28.475H52.5957ZM59.8246 31H64.1746L70.3246 17.25H67.3496L62.8496 27.975H62.7496L63.5746 22.975L64.4496 17.25H61.5746L59.8246 31ZM72.1967 16.375H75.1967L76.0467 13.375H73.0467L72.1967 16.375ZM68.0217 31H71.0217L74.9467 17.25H71.9467L68.0217 31ZM76.0951 31.125H76.4451C77.3201 31.125 78.3451 30.55 79.2451 29.5V31H81.4451L86.4701 13.375H83.4701L82.0201 18.475C81.6201 17.7 81.0201 17.125 79.9201 17.125H79.8201C77.9451 17.125 76.7701 18.45 76.2201 20.45L74.1701 27.475C73.5451 29.65 74.3701 31.125 76.0951 31.125ZM77.6701 28.375C77.1701 28.375 77.0201 28.15 77.1451 27.65L79.1701 20.625C79.2951 20.15 79.4701 19.875 79.9201 19.875H80.8951C81.3951 19.875 81.5701 20.1 81.4201 20.6L79.4201 27.625C79.2701 28.1 79.0701 28.375 78.6201 28.375H77.6701ZM87.3385 31.125H88.8635C90.8635 31.125 92.0385 30.1 92.7135 27.8L93.1135 26.375H90.1635L89.7635 27.725C89.6385 28.2 89.4635 28.475 89.0135 28.475H88.2385C87.7385 28.475 87.5635 28.25 87.7135 27.75L88.4885 25.025H93.5635L94.7885 20.775C95.4135 18.6 94.4385 17.125 92.3135 17.125H90.7385C88.7385 17.125 87.5385 18.15 86.8885 20.45L84.8635 27.475C84.2385 29.65 85.2135 31.125 87.3385 31.125ZM89.1635 22.7L89.7885 20.525C89.9135 20.05 90.1135 19.775 90.5635 19.775H91.3885C91.8885 19.775 92.0635 20 91.9135 20.5L91.2885 22.7H89.1635ZM94.2424 31H97.2424L100.217 20.625C100.342 20.15 100.517 19.875 100.967 19.875H101.492C101.992 19.875 102.167 20.1 102.017 20.6L101.217 23.425H104.117L104.867 20.775C105.567 18.325 104.842 17.125 103.242 17.125H103.092C102.167 17.125 101.242 17.7 100.342 18.75V17.25H98.1674L94.2424 31Z" fill="white"/>
</svg>
