<?xml version="1.0"?>
<svg xmlns="http://www.w3.org/2000/svg" xmlns:xlink="http://www.w3.org/1999/xlink" xmlns:svgjs="http://svgjs.com/svgjs" version="1.1" width="512" height="512" x="0" y="0" viewBox="0 0 507.925 507.925" style="enable-background:new 0 0 512 512" xml:space="preserve"><g>
<g xmlns="http://www.w3.org/2000/svg">
	<g>
		<path d="M8.629,118.485V384c0,4.032,2.283,7.723,5.888,9.536l228.779,114.389V230.72L8.629,118.485z M72.629,373.333    c-12.373,0-21.333-13.461-21.333-32c0-18.539,8.96-32,21.333-32s21.333,13.461,21.333,32    C93.963,359.872,85.003,373.333,72.629,373.333z M136.629,336.469c-12.373,0-21.333-13.461-21.333-32c0-18.539,8.96-32,21.333-32    s21.333,13.461,21.333,32C157.963,323.008,149.003,336.469,136.629,336.469z M200.629,298.667c-12.373,0-21.333-13.461-21.333-32    c0-18.539,8.96-32,21.333-32s21.333,13.461,21.333,32C221.963,285.205,213.003,298.667,200.629,298.667z" fill="#ffffff" data-original="#000000" style=""/>
	</g>
</g>
<g xmlns="http://www.w3.org/2000/svg">
	<g>
		<path d="M258.379,0.96c-2.816-1.28-6.016-1.28-8.832,0L25.376,102.848l228.587,109.333l228.587-109.333L258.379,0.96z     M253.963,138.667c-18.539,0-32-8.96-32-21.333c0-12.373,13.461-21.333,32-21.333c18.539,0,32,8.96,32,21.333    C285.963,129.707,272.501,138.667,253.963,138.667z" fill="#ffffff" data-original="#000000" style=""/>
	</g>
</g>
<g xmlns="http://www.w3.org/2000/svg">
	<g>
		<path d="M264.629,230.72v277.205l228.779-114.389c3.605-1.813,5.888-5.504,5.888-9.536V118.485L264.629,230.72z M317.963,309.333    c-12.352,0-21.333-13.461-21.333-32c0-18.539,8.981-32,21.333-32c12.352,0,21.333,13.461,21.333,32    C339.296,295.872,330.315,309.333,317.963,309.333z M424.629,362.667c-12.352,0-21.333-13.461-21.333-32    c0-18.539,8.981-32,21.333-32c12.352,0,21.333,13.461,21.333,32C445.963,349.205,436.981,362.667,424.629,362.667z" fill="#ffffff" data-original="#000000" style=""/>
	</g>
</g>
</g></svg>
