<svg width="440" height="373" viewBox="0 0 440 373" fill="none" xmlns="http://www.w3.org/2000/svg">
<path d="M0.670013 360L55.5 359.76L110.34 359.67L220 359.5L329.66 359.67L384.5 359.75L439.33 360L384.5 360.24L329.66 360.33L220 360.5L110.34 360.33L55.5 360.24L0.670013 360Z" fill="#263238"/>
<path d="M171.15 280V280.14C171.15 280.14 171.15 280.2 171.15 280.24C171.15 280.28 171.15 280.4 171.2 280.51V280.69C171.232 280.818 171.255 280.949 171.27 281.08C171.27 281.17 171.27 281.26 171.32 281.36C171.37 281.46 171.39 281.78 171.44 282.02C171.49 282.26 171.59 282.83 171.67 283.31L172.12 285.75C172.17 286.01 172.22 286.29 172.27 286.58C172.32 286.87 172.41 287.36 172.49 287.77C172.57 288.18 172.65 288.69 172.74 289.18C172.8 289.52 172.87 289.87 172.93 290.23C173.12 291.3 173.32 292.44 173.55 293.66C173.555 293.69 173.555 293.72 173.55 293.75C173.79 295.11 174.05 296.57 174.33 298.1C174.4 298.5 174.48 298.9 174.56 299.3C174.64 299.7 174.72 300.14 174.79 300.56C174.79 300.82 174.88 301.09 174.94 301.36C175.32 303.487 175.73 305.74 176.17 308.12C176.32 308.92 176.46 309.73 176.61 310.55C176.9 312.15 177.2 313.79 177.51 315.48C177.59 315.87 177.66 316.26 177.72 316.66C178.167 319.107 178.63 321.653 179.11 324.3C179.17 324.57 179.21 324.84 179.26 325.11C179.49 326.35 179.72 327.6 179.94 328.88C179.97 328.978 179.99 329.078 180 329.18L180.33 331C180.77 333.44 181.223 335.937 181.69 338.49C181.81 339.12 181.93 339.76 182.04 340.41C182.27 341.7 182.51 343 182.75 344.31C183.05 345.94 183.35 347.58 183.65 349.25C183.95 350.92 184.25 352.59 184.56 354.25C184.72 355.1 184.87 355.95 185.03 356.8C185.21 357.8 185.4 358.8 185.58 359.87H272C261.34 315.58 252.35 279.87 252.35 279.87L171.15 280Z" fill="#455A64"/>
<path d="M184.21 290C188.537 313.333 192.91 336.667 197.33 360H198.53C193.94 336.61 189.21 313.26 184.53 289.9C184.46 289.68 184.18 289.77 184.21 290Z" fill="#37474F"/>
<path d="M171.16 280C171.16 280 171.16 280.05 171.16 280.14C171.16 280.23 171.16 280.2 171.16 280.24C171.16 280.28 171.16 280.4 171.21 280.51V280.69C171.242 280.818 171.265 280.949 171.28 281.08C171.28 281.17 171.28 281.26 171.33 281.36C171.38 281.46 171.41 281.78 171.45 282.02C171.49 282.26 171.6 282.83 171.68 283.31C171.82 284.02 171.96 284.83 172.13 285.75C172.18 286.01 172.23 286.29 172.28 286.58C172.33 286.87 172.42 287.36 172.5 287.77C172.58 288.18 172.66 288.69 172.75 289.18C172.81 289.52 172.88 289.87 172.94 290.23C173.14 291.3 173.34 292.44 173.56 293.66C173.565 293.69 173.565 293.72 173.56 293.75C173.81 295.11 174.07 296.55 174.35 298.08C174.43 298.48 174.5 298.89 174.57 299.3C174.64 299.71 174.73 300.14 174.8 300.56C174.86 300.82 174.9 301.09 174.95 301.36C175.34 303.48 175.75 305.74 176.18 308.12C176.33 308.92 176.47 309.73 176.62 310.55C176.92 312.15 177.22 313.79 177.52 315.48C177.6 315.87 177.67 316.26 177.73 316.66C178.19 319.12 178.653 321.667 179.12 324.3C179.18 324.57 179.22 324.84 179.27 325.11C179.5 326.35 179.73 327.6 179.95 328.88C179.98 328.978 180 329.078 180.01 329.18L180.34 331C180.787 333.44 181.24 335.937 181.7 338.49C181.82 339.12 181.94 339.76 182.05 340.41C182.29 341.7 182.52 343 182.76 344.31C183.06 345.94 183.36 347.58 183.66 349.25C183.96 350.92 184.27 352.59 184.57 354.25C184.73 355.1 184.88 355.95 185.04 356.8C185.22 357.8 185.41 358.8 185.6 359.87H229L232.47 324.35L232.59 323.09L232.73 321.73L233.41 314.78L234 308.78L236.79 280H171.16Z" fill="#263238"/>
<path d="M122.05 360H215.26C215.42 351.42 215.59 343.12 215.8 335.29C215.8 335.1 215.8 334.91 215.8 334.72C215.8 334.72 226.68 328.28 232.54 323.23C233.536 322.411 234.453 321.5 235.28 320.51C239.03 315.73 242.79 297.35 250.57 280.06H136.57C118.05 316 119.35 344.88 122.05 360Z" fill="#455A64"/>
<path d="M238 319.24C232.45 321.51 227.46 325 222.54 328.37C217.43 331.86 212.74 335.9 207.82 339.65C207.63 339.8 207.82 340.11 208.02 339.97C213.2 336.66 218.63 333.75 223.76 330.34C228.89 326.93 233.92 323.81 238.25 319.64C238.42 319.48 238.23 319.14 238 319.24Z" fill="#263238"/>
<path d="M238.7 287.17C238.04 290.72 237.17 294.24 236.41 297.77C235.69 301.08 235.16 304.45 234.29 307.77C233.576 310.938 231.965 313.833 229.65 316.11C228.35 317.32 226.92 318.39 225.53 319.49C224.79 320.09 223.98 320.66 223.2 321.27C223.3 320.8 223.39 320.27 223.47 319.84C223.71 318.49 223.93 317.15 224.16 315.84C224.66 312.84 225.16 309.84 225.6 306.84C226.5 300.95 227.33 295 228.6 289.17C228.613 289.121 228.606 289.069 228.581 289.025C228.556 288.98 228.514 288.948 228.465 288.935C228.416 288.922 228.364 288.929 228.32 288.954C228.275 288.979 228.243 289.021 228.23 289.07C226.76 294.85 225.14 300.57 223.87 306.4C223.24 309.25 221 323.4 220.87 324.4C220.74 325.4 220.68 326.47 220.65 327.5C220.515 328.552 220.515 329.618 220.65 330.67C220.672 330.717 220.706 330.756 220.75 330.784C220.793 330.812 220.843 330.827 220.895 330.827C220.947 330.827 220.997 330.812 221.04 330.784C221.084 330.756 221.118 330.717 221.14 330.67V330.67C221.566 329.691 221.868 328.663 222.04 327.61C222.3 326.603 222.52 325.583 222.7 324.55C222.77 324.19 222.82 323.81 222.87 323.43C224.26 322.58 225.56 321.43 226.87 320.53C228.18 319.63 229.69 318.53 231.02 317.41C233.465 315.337 235.231 312.578 236.09 309.49C236.943 306.166 237.499 302.773 237.75 299.35C238.2 295.35 238.52 291.35 239.08 287.35C239.1 287 238.74 286.93 238.7 287.17Z" fill="#263238"/>
<path d="M143.85 311.89C145.33 311.12 151.1 312.49 161.59 310.7C163.643 310.435 165.593 309.642 167.25 308.4C169.99 306.17 172.06 302.58 173.71 299.51C175.69 296.056 177.209 292.358 178.23 288.51C178.28 288.27 178.62 288.39 178.58 288.61C178.19 290.78 177.97 292.95 177.4 295.1C176.832 297.117 176.106 299.087 175.23 300.99C173.64 304.55 171.79 308.37 168.6 310.78C165.25 313.3 160.6 313.78 156.52 314.06C154.17 314.22 144.96 313.97 143.73 312.66C143.683 312.603 143.649 312.537 143.629 312.466C143.609 312.395 143.605 312.321 143.616 312.248C143.628 312.175 143.654 312.106 143.695 312.044C143.735 311.982 143.788 311.93 143.85 311.89V311.89Z" fill="#263238"/>
<path d="M216.26 144.58C239 157.2 323.12 189.48 342 178C356.07 169.44 354.06 151.07 342.09 139.22C331.68 128.91 253.68 126.01 231.85 125.41C211.1 124.8 194 132.18 216.26 144.58Z" fill="#FFC4C0"/>
<path d="M272.19 173.05L306.09 126.54C306.09 126.54 247.43 120.83 222.66 122.97C196.84 125.2 191.55 135.3 222.72 149.67C253.42 163.82 272.19 173.05 272.19 173.05Z" fill="#F8FF13"/>
<path d="M266.47 164.08C267.15 162.88 268 161.77 268.78 160.64C269.56 159.51 270.39 158.32 271.19 157.15C272.82 154.79 274.49 152.46 276.19 150.15C279.55 145.51 282.89 140.86 286.33 136.28C287.27 135.02 288.22 133.76 289.2 132.53C290.18 131.3 291.35 130 292.37 128.71C292.43 128.62 292.54 128.71 292.49 128.81C291.69 129.98 290.99 131.22 290.2 132.4C289.41 133.58 288.56 134.81 287.72 135.99C286.06 138.33 284.393 140.663 282.72 142.99C279.38 147.53 276.06 152.09 272.62 156.56L269.73 160.3C268.73 161.6 267.78 162.99 266.66 164.2C266.54 164.22 266.42 164.16 266.47 164.08Z" fill="#263238"/>
<path d="M222.72 149.66C253.42 163.81 272.19 173.05 272.19 173.05L283 158.17L201.74 130.37C199.41 135.09 205.51 141.73 222.72 149.66Z" fill="#263238"/>
<path d="M294.4 42.08C288.1 33.31 272.05 21.08 256.02 11.63C248.24 7.01999 224.51 -3.83 220.52 1.86C216.53 7.55 223.18 11.35 223.18 11.35C223.18 11.35 212.47 8.25999 208.97 14.35C205.47 20.44 216 26 216 26C216 26 204.76 23.63 201.71 30C198.66 36.37 210.2 40.14 210.2 40.14C210.2 40.14 200.03 37.5 199.71 43.77C199.33 51.33 218.63 54.08 226.97 59.61C228.87 60.86 263.57 87.77 263.57 87.77L294.4 42.08Z" fill="#FFC4C0"/>
<path d="M210.34 40.3C224.53 42.37 230.34 45.72 241.11 54.89C241.32 55.07 241.63 54.8 241.43 54.59C231.74 44.66 225.01 39.39 210.43 39.59C209.69 39.62 209.67 40.21 210.34 40.3Z" fill="#263238"/>
<path d="M215.49 25.75C230.04 29.18 236.41 32.75 248.36 41.54C248.52 41.67 248.75 41.39 248.59 41.25C237.59 31.66 230.76 26.56 215.77 25.05C215.1 25 214.82 25.6 215.49 25.75Z" fill="#263238"/>
<path d="M224.37 11.69C238.21 16.03 245.37 19.69 255.87 29.69C255.921 29.7342 255.986 29.7579 256.053 29.7564C256.12 29.755 256.185 29.7286 256.233 29.6824C256.282 29.6361 256.312 29.5734 256.317 29.5064C256.322 29.4393 256.301 29.3729 256.26 29.32C246.55 18.07 237.65 13.48 224.54 11.32C223.65 11.14 223.49 11.42 224.37 11.69Z" fill="#263238"/>
<path d="M269.05 96.41C269.05 96.41 251.5 92.54 244.17 89.15C236.84 85.76 214.17 63.03 218.8 57.85C224.8 51.17 240.45 61.71 247.45 67.85C247.45 67.85 261.26 52.38 274.14 57.51C287.02 62.64 269.05 96.41 269.05 96.41Z" fill="#FFC4C0"/>
<path d="M221.05 56.56C230.9 54.4 239.56 63.08 246.8 68.56C246.902 68.6472 247.024 68.7081 247.154 68.7373C247.285 68.7666 247.421 68.7633 247.551 68.7278C247.68 68.6922 247.798 68.6256 247.896 68.5336C247.994 68.4415 248.067 68.327 248.11 68.2C254.33 62.11 264.89 55.32 273.92 57.03C273.97 57.0356 274.02 57.0232 274.061 56.9952C274.103 56.9671 274.133 56.9252 274.146 56.877C274.159 56.8288 274.155 56.7774 274.134 56.7321C274.112 56.6868 274.076 56.6506 274.03 56.63C264.59 53.47 253.68 59.3 247.29 66.41C239.96 60.68 230.89 52.35 221.02 56.47C221.012 56.4763 221.005 56.4851 221.002 56.4951C220.999 56.5051 220.999 56.5159 221.003 56.5258C221.006 56.5358 221.012 56.5444 221.021 56.5506C221.029 56.5567 221.04 56.56 221.05 56.56V56.56Z" fill="#263238"/>
<path d="M351.84 161.68C351.21 181.11 328.17 179.77 318.22 170.53C294.85 148.86 260.4 104.64 251.06 77.38C248.06 68.61 283.34 30.07 290.2 37.23C302.39 49.93 353.12 122.25 351.84 161.68Z" fill="#FFC4C0"/>
<path d="M292.66 143C294.38 144.75 296.03 146.54 297.66 148.35C299.29 150.16 300.93 151.97 302.55 153.79L307.36 159.3C308.15 160.22 308.96 161.13 309.78 162.04C310.6 162.95 311.41 163.85 312.23 164.76C310.31 163.238 308.496 161.588 306.8 159.82C305.07 158.09 303.42 156.28 301.8 154.45C300.18 152.62 298.6 150.76 297.08 148.84C295.56 146.92 294.07 145 292.66 143Z" fill="#263238"/>
<path d="M302.46 154.42C303.28 155.6 303.99 156.75 304.7 157.93C305.04 158.52 305.39 159.11 305.7 159.72C306.037 160.341 306.334 160.982 306.59 161.64C305.471 160.759 304.533 159.669 303.83 158.43C303.468 157.822 303.16 157.183 302.91 156.52C302.65 155.848 302.498 155.139 302.46 154.42V154.42Z" fill="#263238"/>
<path d="M260.94 299.16H126C126 299.16 146.61 170.44 196.33 126.42C202.47 120.98 216.33 122.22 225.33 126.71C228.56 128.32 240.15 144.53 243.46 159.87C246.77 175.21 261.3 298.7 260.94 299.16Z" fill="#F8FF13"/>
<path d="M173.24 303.79C173.24 296.24 175.43 250.62 174.13 235.66C173.69 230.66 191.01 174.73 195.48 155.95C199.68 138.33 190.71 130.55 177.54 147.14C166.59 160.94 137.97 214.83 132.19 229.22C126.41 243.61 120.39 292.09 120.43 302.34C120.47 310.45 173.21 311.25 173.24 303.79Z" fill="#FFC4C0"/>
<path d="M179 368.75C173.81 371.36 169.61 367.05 169.61 367.05C168.105 369.524 165.78 371.393 163.04 372.33C158.14 373.75 153.75 366.68 153.75 366.68C151.653 368.922 148.927 370.476 145.93 371.14C141.1 372.03 135.67 365.53 135.67 365.53C132.605 366.522 129.286 366.377 126.32 365.12C118.53 361.45 116.98 348.4 115.91 340.12C114.84 331.84 120.16 304.93 120.58 300.17L173.13 295.17C173.13 295.17 188.51 330.98 188.38 340.9C188.24 349.3 184.79 365.81 179 368.75Z" fill="#FFC4C0"/>
<path d="M169.8 366.85C172.04 357.98 171.55 348.94 171.56 339.85C171.551 339.816 171.531 339.785 171.503 339.763C171.475 339.742 171.441 339.73 171.405 339.73C171.369 339.73 171.335 339.742 171.307 339.763C171.279 339.785 171.259 339.816 171.25 339.85C171.34 348.85 169.64 357.76 169.37 366.75C169.357 366.807 169.367 366.867 169.398 366.917C169.429 366.966 169.478 367.002 169.535 367.015C169.592 367.028 169.652 367.018 169.702 366.987C169.751 366.956 169.787 366.907 169.8 366.85Z" fill="#263238"/>
<path d="M154.39 366.42C154.698 364.357 154.742 362.264 154.52 360.19C154.41 357.98 154.26 355.78 154.08 353.57C153.727 349.17 153.26 344.773 152.68 340.38C152.68 340.19 152.35 340.18 152.37 340.38C152.72 344.77 153 349.17 153.16 353.57C153.25 355.78 153.31 357.98 153.36 360.19C153.269 362.272 153.41 364.359 153.78 366.41C153.799 366.475 153.839 366.532 153.893 366.573C153.948 366.614 154.013 366.637 154.081 366.638C154.149 366.639 154.216 366.619 154.271 366.58C154.327 366.54 154.368 366.484 154.39 366.42Z" fill="#263238"/>
<path d="M135.62 365.34C136.08 363.61 135.62 361.5 135.43 359.73C135.23 357.73 135.03 355.73 134.85 353.73C134.48 349.73 134.12 345.73 133.9 341.73C133.9 341.53 133.57 341.53 133.58 341.73C133.79 345.81 133.94 349.91 134.19 353.99C134.31 355.99 134.44 357.99 134.58 359.99C134.7 361.7 134.66 363.84 135.42 365.41C135.46 365.46 135.59 365.43 135.62 365.34Z" fill="#263238"/>
<path d="M184.71 213.72L130.22 213.9C130.22 213.9 159.99 163.04 176.22 144.23C193.16 124.62 204.45 126.23 197.81 159.93C191.3 193.1 184.71 213.72 184.71 213.72Z" fill="#F8FF13"/>
<path d="M139.15 205.12C140.52 204.97 141.92 205.01 143.29 204.99L147.53 204.91C150.4 204.85 153.27 204.84 156.13 204.85C161.86 204.85 167.59 204.85 173.31 204.96C174.89 204.96 176.46 205.03 178.03 205.1C179.6 205.17 181.34 205.37 183.03 205.44C183.13 205.44 183.11 205.59 183.03 205.6C181.61 205.6 180.19 205.79 178.77 205.84C177.35 205.89 175.86 205.92 174.4 205.93C171.54 205.93 168.68 205.93 165.81 205.93C160.17 205.88 154.53 205.85 148.89 205.67L144.17 205.51C142.53 205.46 140.84 205.51 139.17 205.29C139.08 205.26 139.06 205.13 139.15 205.12Z" fill="#263238"/>
<path d="M192 188.45C193.169 186.679 193.987 184.7 194.41 182.62C194.41 182.62 194.35 182.57 194.34 182.62C193.754 184.409 193.018 186.145 192.14 187.81L192.65 185.56C193.25 182.83 193.86 180.12 194.33 177.37C194.33 177.37 194.27 177.3 194.26 177.37C192.89 182.03 191.73 186.77 190.47 191.47C189.21 196.17 187.93 201 186.68 205.77C185.99 208.38 185.3 210.98 184.68 213.59C183.79 213.67 183.1 213.64 182.31 213.71C182.1 213.71 182.08 214.09 182.31 214.11C183.309 214.189 184.314 214.172 185.31 214.06C188 205.65 190.06 197.05 192 188.45Z" fill="#263238"/>
<path d="M192.91 133.65C196.731 140.719 202.319 146.676 209.13 150.94C212.385 153.091 216.124 154.397 220.01 154.74C222.031 154.946 224.065 154.516 225.83 153.51C227.466 152.323 228.765 150.731 229.6 148.89C230.613 146.805 231.311 144.58 231.67 142.29C232.119 139.699 232.383 137.079 232.46 134.45C232.46 134.35 232.61 134.37 232.6 134.45C232.53 136.94 232.66 139.45 232.4 141.91C232.216 144.097 231.753 146.251 231.02 148.32C230.317 150.278 229.206 152.064 227.76 153.56C226.24 155.03 224.241 155.903 222.13 156.02C217.99 156.221 213.883 155.198 210.32 153.08C206.714 151.074 203.442 148.52 200.62 145.51C197.36 142.038 194.685 138.059 192.7 133.73C192.687 133.715 192.678 133.698 192.673 133.679C192.669 133.66 192.669 133.641 192.673 133.622C192.678 133.603 192.687 133.586 192.7 133.571C192.713 133.557 192.729 133.545 192.747 133.538C192.765 133.532 192.785 133.529 192.804 133.531C192.823 133.534 192.842 133.541 192.858 133.552C192.874 133.563 192.887 133.577 192.896 133.594C192.905 133.612 192.91 133.631 192.91 133.65Z" fill="#263238"/>
<path d="M223.43 149.22C215.73 151.37 201.91 140.03 196.25 130.61C195.87 129.96 196.6 122.97 197.09 114.42C197.36 109.23 197.55 103.42 197.34 98.16C197.29 97.08 230.83 104.89 230.83 104.89C230.83 104.89 228.01 116.1 228.44 125.32C228.478 126.048 228.581 126.771 228.75 127.48C228.75 127.58 228.8 127.7 228.82 127.84C229.65 131.94 230.87 147.14 223.43 149.22Z" fill="#FFC4C0"/>
<path d="M225.42 128.15C226.557 128.141 227.691 128.037 228.81 127.84C228.798 127.719 228.778 127.598 228.75 127.48C228.576 126.772 228.472 126.048 228.44 125.32C228.02 116.11 230.82 104.89 230.82 104.89C230.82 104.89 203.6 98.55 198.24 98.08C199.51 104.15 205.84 128.51 225.42 128.15Z" fill="#263238"/>
<path d="M199.75 52.14C193.75 62.88 192.57 97.42 199.13 106.61C208.65 119.93 227.84 125.19 240.07 112.92C251.92 101 252.65 56 245 47.27C233.68 34.42 208.64 36.28 199.75 52.14Z" fill="#FFC4C0"/>
<path d="M239.46 55.86C238.044 57.5827 236.211 58.915 234.135 59.7306C232.06 60.5461 229.81 60.8179 227.6 60.52C223.22 59.89 218.83 56.96 217.19 52.75C217.176 52.7289 217.155 52.7133 217.131 52.7058C217.107 52.6982 217.081 52.6992 217.057 52.7086C217.034 52.718 217.014 52.7352 217.002 52.7573C216.99 52.7794 216.986 52.8051 216.99 52.83C218.75 57.32 222.49 60.98 227.44 61.57C229.788 61.8063 232.156 61.4228 234.309 60.4577C236.462 59.4926 238.324 57.9797 239.71 56.07C239.83 55.9 239.59 55.7 239.46 55.86Z" fill="#263238"/>
<path d="M226.47 27.88C221.03 26.42 215.07 29.04 211.85 33.51C209.994 36.2078 208.852 39.3316 208.53 42.59C208.537 42.6124 208.551 42.6319 208.57 42.6458C208.589 42.6597 208.612 42.6672 208.635 42.6672C208.658 42.6672 208.681 42.6597 208.7 42.6458C208.719 42.6319 208.733 42.6124 208.74 42.59C209.67 37.46 212.88 32.27 217.65 29.93C219.822 28.7732 222.3 28.323 224.74 28.6421C227.18 28.9612 229.459 30.0336 231.26 31.71C233.251 33.5841 234.542 36.0819 234.92 38.79C234.936 38.8446 234.971 38.8918 235.019 38.9229C235.067 38.954 235.124 38.9672 235.181 38.96C235.237 38.9527 235.289 38.9256 235.328 38.8835C235.366 38.8414 235.388 38.787 235.39 38.73C235.197 36.2246 234.237 33.8393 232.641 31.8982C231.045 29.9571 228.891 28.5542 226.47 27.88Z" fill="#263238"/>
<path d="M267.36 40.43C266.129 36.9108 263.687 33.9441 260.47 32.06C256.02 29.42 251.06 29.92 246.14 30.51C246.118 30.517 246.098 30.5309 246.084 30.5498C246.07 30.5687 246.063 30.5915 246.063 30.615C246.063 30.6384 246.07 30.6613 246.084 30.6802C246.098 30.6991 246.118 30.713 246.14 30.72C250.33 30.23 254.61 29.97 258.51 31.88C261.736 33.4344 264.325 36.0556 265.84 39.3C267.291 42.6388 267.491 46.3884 266.404 49.8627C265.317 53.3371 263.015 56.3038 259.92 58.22C258.108 59.2769 256.099 59.9516 254.016 60.2027C251.933 60.4538 249.821 60.2759 247.81 59.68C247.66 59.68 247.54 59.87 247.71 59.92C250.431 60.8393 253.355 60.9824 256.153 60.3331C258.951 59.6839 261.513 58.268 263.551 56.2442C265.589 54.2204 267.023 51.6688 267.693 48.8755C268.362 46.0822 268.24 43.1578 267.34 40.43H267.36Z" fill="#263238"/>
<path d="M197.81 56.78C197.81 56.78 198.41 46.23 201.14 43C203.87 39.77 209.91 39 209.91 39C209.91 39 213.43 30.07 221.91 29.47C229.55 28.93 234.73 35.67 234.73 35.67C234.73 35.67 245.29 25.16 257.38 31.11C268.86 36.76 267.38 54.23 256.33 59.83C248.53 63.75 237.78 56.96 237.78 56.96C236.78 57.11 226.35 63.59 218.29 54.33C218.29 54.33 211.14 59.93 207.01 56.02C207 56 201.54 58.66 197.81 56.78Z" fill="#263238"/>
<path opacity="0.2" d="M206.45 44.55C206.08 49.77 204.88 64.63 202.98 67.89C201.08 71.15 196.55 79.68 194.71 80.28C194.91 69.05 196.71 57.56 199.71 52.14C201.4 49.1653 203.696 46.5793 206.45 44.55V44.55Z" fill="#263238"/>
<path d="M199.52 80.09C199.52 80.09 194.1 67.82 188.67 69.55C183.24 71.28 185.84 88.03 191.17 91.3C191.826 91.7605 192.568 92.0848 193.352 92.2538C194.135 92.4228 194.945 92.433 195.733 92.2839C196.52 92.1347 197.27 91.8292 197.938 91.3854C198.606 90.9416 199.178 90.3685 199.62 89.7L199.52 80.09Z" fill="#FFC4C0"/>
<path d="M189.54 74.33C189.45 74.33 189.4 74.43 189.48 74.48C193.18 76.9 194.57 81.06 195.29 85.23C194.39 83.5 192.92 82.36 190.64 83.39C190.52 83.45 190.64 83.63 190.71 83.63C191.458 83.5395 192.215 83.6833 192.878 84.0415C193.541 84.3997 194.076 84.9547 194.41 85.63C194.965 86.7725 195.391 87.9733 195.68 89.21C195.8 89.6 196.48 89.54 196.43 89.1C196.435 89.0668 196.435 89.0332 196.43 89C197.53 83.91 195 75.93 189.54 74.33Z" fill="#263238"/>
<path d="M223.6 79.5C223.6 79.41 223.41 79.6 223.41 79.7C223.41 82.03 222.99 84.7 220.85 85.39C220.79 85.39 220.79 85.52 220.85 85.52C223.45 85.25 224 81.71 223.6 79.5Z" fill="#263238"/>
<path d="M221.61 77C217.88 76.58 217.3 84.07 220.76 84.46C224.22 84.85 224.74 77.35 221.61 77Z" fill="#263238"/>
<path d="M238.19 80.49C238.19 80.4 238.37 80.61 238.36 80.7C238.1 83.02 238.2 85.7 240.24 86.7C240.31 86.7 240.29 86.84 240.24 86.82C237.68 86.22 237.58 82.64 238.19 80.49Z" fill="#263238"/>
<path d="M240.45 78.22C244.21 78.22 243.92 85.74 240.45 85.73C236.98 85.72 237.3 78.22 240.45 78.22Z" fill="#263238"/>
<path d="M217.88 72.34C218.76 71.76 219.67 71.34 220.6 70.88C221.482 70.2184 222.558 69.8669 223.66 69.88C224.003 69.9566 224.311 70.144 224.537 70.4133C224.763 70.6826 224.894 71.0188 224.91 71.37C224.91 72.87 223.77 73.87 222.53 74.58C221.306 75.3372 219.845 75.6117 218.43 75.35C218.122 75.2647 217.845 75.0945 217.629 74.8588C217.414 74.6231 217.269 74.3315 217.212 74.0174C217.154 73.7032 217.187 73.3793 217.305 73.0826C217.423 72.786 217.622 72.5286 217.88 72.34V72.34Z" fill="#263238"/>
<path d="M245.11 75.32C244.337 74.6356 243.529 73.9914 242.69 73.39C241.935 72.5969 240.941 72.0734 239.86 71.9C239.508 71.913 239.171 72.0416 238.9 72.2657C238.629 72.4899 238.439 72.7972 238.36 73.14C238.12 74.62 239.04 75.8 240.13 76.72C241.195 77.6857 242.582 78.2204 244.02 78.22C244.348 78.203 244.665 78.0905 244.93 77.8963C245.196 77.7021 245.399 77.4347 245.514 77.1269C245.63 76.819 245.654 76.4841 245.582 76.1631C245.51 75.8422 245.346 75.5492 245.11 75.32V75.32Z" fill="#263238"/>
<path d="M224.43 97.64C227.43 96.64 231.21 97.33 233.59 97.8C233.86 97.8 234.14 97.26 234.2 97.02C234.2 96.93 234.4 92.1 234.4 92.1C235.02 92.47 238.21 94.18 238.22 93.25C238.3 85.58 238.39 77.05 236.85 69.4C236.85 69.3443 236.828 69.2909 236.788 69.2515C236.749 69.2121 236.696 69.19 236.64 69.19C236.584 69.19 236.531 69.2121 236.492 69.2515C236.452 69.2909 236.43 69.3443 236.43 69.4C236.06 76.77 236.99 84.16 236.73 91.56C235.601 90.9341 234.389 90.4728 233.13 90.19C232.87 90.24 233.19 95.4 233.04 96.19C233.04 96.19 228.46 94.45 224.46 96.62C223.43 97.19 223 98.1 224.43 97.64Z" fill="#263238"/>
<path d="M219.49 100.74C220.01 101.32 220.49 102.09 221.34 102.22C222.197 102.261 223.053 102.118 223.85 101.8C223.867 101.792 223.887 101.79 223.905 101.795C223.924 101.799 223.94 101.811 223.951 101.826C223.962 101.842 223.966 101.861 223.965 101.88C223.963 101.899 223.954 101.917 223.94 101.93C223.576 102.351 223.105 102.665 222.577 102.841C222.049 103.017 221.484 103.048 220.94 102.93C220.478 102.779 220.072 102.493 219.773 102.111C219.474 101.728 219.295 101.265 219.26 100.78C219.24 100.7 219.42 100.66 219.49 100.74Z" fill="#263238"/>
<path d="M209.09 74.16C205.92 74.16 207.62 68.16 208.29 66.09C208.754 63.878 209.022 61.6292 209.09 59.37C209.157 61.6309 209.435 63.8807 209.92 66.09C210.58 68.17 212.28 74.16 209.09 74.16Z" fill="white"/>
<path d="M248.77 90.36C249.02 87.61 249.21 84.87 249.33 82.12C249.45 79.37 249.54 76.63 249.52 73.88C249.5 71.13 249.46 68.4 249.33 65.65C249.33 64.28 249.19 62.91 249.08 61.54C248.97 60.17 248.84 58.79 248.77 57.41C249.388 60.1054 249.832 62.8377 250.1 65.59C250.39 68.3471 250.53 71.1178 250.52 73.89C250.52 76.6586 250.38 79.4255 250.1 82.18C249.95 83.55 249.78 84.92 249.58 86.29C249.38 87.66 249.11 89 248.77 90.36Z" fill="#263238"/>
<path d="M187.78 371.47C187.85 371.88 187.93 372.29 188.01 372.71C187.94 372.3 187.86 371.88 187.79 371.47H187.78Z" fill="#EBEBEB"/>
<path d="M183.73 47C186.468 42.9557 187.954 38.1939 188 33.31C188 15.92 168.91 1.82 145.37 1.82C121.83 1.82 102.75 15.92 102.75 33.31C102.75 50.7 121.83 64.79 145.37 64.79C156.78 64.79 167.13 61.49 174.77 56.08L189.46 59.81L183.73 47Z" fill="white"/>
<path d="M183.73 47C186.227 43.1141 187.611 38.6176 187.73 34C187.789 29.4128 186.54 24.9037 184.13 21C181.721 17.131 178.546 13.7959 174.8 11.2C171.068 8.59415 166.961 6.57102 162.62 5.2C158.283 3.8116 153.787 2.9783 149.24 2.72C144.703 2.43748 140.148 2.69259 135.67 3.48C131.199 4.24311 126.855 5.61941 122.76 7.57C118.681 9.48147 114.96 12.0792 111.76 15.25C108.562 18.3781 106.176 22.24 104.81 26.5C103.475 30.7461 103.416 35.2907 104.64 39.57C105.914 43.8758 108.228 47.8015 111.38 51C114.551 54.2145 118.252 56.8597 122.32 58.82C126.407 60.7834 130.739 62.1893 135.2 63C139.673 63.8508 144.233 64.1596 148.78 63.92C157.944 63.5752 166.837 60.7215 174.49 55.67L174.67 55.54L174.87 55.6L189.5 59.54L189.22 59.87L183.73 47ZM183.73 47L189.66 59.69L189.87 60.14L189.38 60.02L174.64 56.5L175.02 56.43C171.215 59.1448 167.016 61.2594 162.57 62.7C158.135 64.1682 153.532 65.0654 148.87 65.37C144.192 65.6964 139.491 65.458 134.87 64.66C130.246 63.8434 125.754 62.4001 121.52 60.37C117.247 58.3466 113.356 55.5995 110.02 52.25C106.631 48.8683 104.125 44.7065 102.72 40.13C101.359 35.4917 101.401 30.5546 102.84 25.94C104.327 21.3895 106.901 17.2705 110.34 13.94C113.741 10.6428 117.686 7.95682 122 6C126.255 4.00652 130.764 2.60678 135.4 1.84C144.662 0.229404 154.181 0.958132 163.09 3.96C167.533 5.44455 171.722 7.60308 175.51 10.36C179.333 13.0942 182.536 16.6039 184.91 20.66C187.283 24.7031 188.437 29.346 188.233 34.0298C188.029 38.7136 186.476 43.2386 183.76 47.06L183.73 47Z" fill="#263238"/>
<path d="M111.45 29.94C111.449 29.8385 111.468 29.7378 111.506 29.6438C111.544 29.5497 111.601 29.4643 111.673 29.3925C111.744 29.3208 111.83 29.2641 111.924 29.2259C112.018 29.1877 112.119 29.1687 112.22 29.17C112.322 29.1687 112.424 29.1875 112.519 29.2255C112.614 29.2635 112.701 29.3199 112.774 29.3914C112.848 29.4629 112.906 29.5481 112.947 29.6423C112.987 29.7364 113.009 29.8376 113.01 29.94V38.24C113.01 38.3433 112.989 38.4455 112.95 38.5408C112.91 38.6361 112.851 38.7225 112.778 38.7951C112.705 38.8677 112.617 38.9249 112.522 38.9635C112.426 39.0021 112.323 39.0213 112.22 39.02C112.118 39.02 112.017 38.9998 111.923 38.9604C111.829 38.9211 111.744 38.8635 111.672 38.7909C111.6 38.7184 111.544 38.6323 111.506 38.5377C111.468 38.4432 111.449 38.342 111.45 38.24V29.94Z" fill="#263238"/>
<path d="M115.33 32.36C115.624 32.3132 115.89 32.1578 116.075 31.9246C116.26 31.6913 116.351 31.3971 116.33 31.1C116.109 31.055 115.91 30.9367 115.765 30.7643C115.619 30.5918 115.537 30.3753 115.53 30.15V30C115.526 29.8746 115.547 29.7496 115.594 29.6329C115.64 29.5163 115.71 29.4105 115.799 29.3222C115.889 29.234 115.995 29.1651 116.112 29.12C116.229 29.0748 116.355 29.0544 116.48 29.06C117.1 29.06 117.48 29.54 117.48 30.3V30.44C117.524 31.1717 117.276 31.8909 116.79 32.44C116.438 32.7963 115.969 33.013 115.47 33.05C115.414 33.0573 115.357 33.0523 115.303 33.0353C115.249 33.0184 115.199 32.9899 115.157 32.9518C115.116 32.9138 115.082 32.8671 115.06 32.8149C115.038 32.7628 115.028 32.7065 115.03 32.65C115.049 32.5792 115.088 32.515 115.14 32.464C115.193 32.413 115.259 32.3771 115.33 32.36V32.36Z" fill="#263238"/>
<path d="M127.35 29.94V38.24C127.345 38.447 127.26 38.6439 127.112 38.7893C126.965 38.9348 126.767 39.0175 126.56 39.02C126.458 39.02 126.357 38.9998 126.263 38.9605C126.169 38.9211 126.084 38.8635 126.012 38.791C125.94 38.7184 125.884 38.6323 125.846 38.5377C125.808 38.4432 125.789 38.342 125.79 38.24V32.32L123.79 35.14C123.719 35.2404 123.624 35.3219 123.514 35.3777C123.405 35.4334 123.283 35.4617 123.16 35.46V35.46C123.034 35.4608 122.91 35.4323 122.797 35.3767C122.684 35.3212 122.586 35.2401 122.51 35.14L120.51 32.32V38.24C120.51 38.4469 120.428 38.6453 120.282 38.7915C120.135 38.9378 119.937 39.02 119.73 39.02C119.523 39.02 119.325 38.9378 119.178 38.7915C119.032 38.6453 118.95 38.4469 118.95 38.24V29.94C118.953 29.7366 119.035 29.5422 119.178 29.3984C119.322 29.2546 119.517 29.1726 119.72 29.17C119.84 29.1707 119.958 29.2002 120.064 29.2558C120.17 29.3115 120.261 29.3918 120.33 29.49L123.13 33.38L125.93 29.49C126.003 29.3895 126.1 29.308 126.211 29.2523C126.322 29.1966 126.446 29.1684 126.57 29.17V29.17C126.774 29.175 126.968 29.2574 127.113 29.4004C127.257 29.5435 127.342 29.7365 127.35 29.94V29.94Z" fill="#263238"/>
<path d="M134.67 36.57C134.792 36.4284 134.964 36.3391 135.15 36.3205C135.336 36.3019 135.522 36.3554 135.67 36.47C136.424 37.1149 137.369 37.4943 138.36 37.55C138.987 37.5648 139.602 37.3829 140.12 37.03C140.295 36.9252 140.442 36.7794 140.548 36.6052C140.655 36.431 140.717 36.2336 140.73 36.03C140.73 35.8708 140.685 35.7149 140.6 35.58C140.492 35.4114 140.349 35.2681 140.18 35.16C139.583 34.8218 138.929 34.598 138.25 34.5V34.5C137.627 34.3904 137.019 34.2057 136.44 33.95C135.906 33.7182 135.451 33.336 135.13 32.85C134.914 32.5052 134.8 32.1067 134.8 31.7C134.813 31.292 134.923 30.8929 135.119 30.5351C135.315 30.1772 135.593 29.8706 135.93 29.64C136.644 29.149 137.493 28.8906 138.36 28.9C139.472 28.9574 140.542 29.3476 141.43 30.02C141.585 30.1292 141.693 30.2939 141.73 30.48C141.767 30.6662 141.731 30.8595 141.63 31.02C141.58 31.1019 141.514 31.1727 141.436 31.228C141.358 31.2834 141.269 31.3221 141.176 31.3418C141.082 31.3614 140.985 31.3617 140.891 31.3425C140.797 31.3232 140.708 31.285 140.63 31.23C139.98 30.7097 139.19 30.3962 138.36 30.33C137.799 30.3225 137.251 30.4903 136.79 30.81C136.635 30.9035 136.504 31.0334 136.41 31.1884C136.316 31.3435 136.261 31.519 136.25 31.7C136.243 31.8372 136.277 31.9733 136.35 32.09C136.454 32.2351 136.582 32.3604 136.73 32.46C137.272 32.7768 137.869 32.9873 138.49 33.08V33.08C139.159 33.1936 139.811 33.3918 140.43 33.67C141.001 33.9196 141.489 34.3251 141.84 34.84C142.058 35.1983 142.173 35.6104 142.17 36.03C142.161 36.4586 142.051 36.879 141.847 37.2563C141.644 37.6337 141.353 37.9572 141 38.2C140.241 38.7371 139.33 39.0174 138.4 39C137.078 38.9429 135.813 38.4507 134.8 37.6C134.65 37.4782 134.552 37.3031 134.528 37.1111C134.504 36.9192 134.555 36.7253 134.67 36.57Z" fill="#263238"/>
<path d="M152.13 30.39C153.04 31.352 153.548 32.6256 153.55 33.95C153.554 35.2756 153.046 36.5514 152.13 37.51C151.705 37.9801 151.186 38.357 150.608 38.6169C150.03 38.8767 149.404 39.014 148.77 39.02C148.122 39.018 147.482 38.8829 146.888 38.6232C146.295 38.3634 145.761 37.9845 145.32 37.51C144.414 36.5478 143.915 35.2718 143.93 33.95C143.921 32.6292 144.418 31.355 145.32 30.39C145.762 29.9168 146.296 29.5395 146.889 29.2814C147.483 29.0234 148.123 28.8901 148.77 28.89C149.403 28.8941 150.029 29.0296 150.607 29.2877C151.186 29.5459 151.704 29.9212 152.13 30.39V30.39ZM151.94 33.95C151.943 33.0399 151.604 32.1619 150.99 31.49C150.71 31.1774 150.368 30.9269 149.986 30.7547C149.604 30.5824 149.189 30.4922 148.77 30.49C148.341 30.4888 147.917 30.5772 147.524 30.7494C147.132 30.9216 146.78 31.1738 146.49 31.49C145.855 32.152 145.497 33.0323 145.49 33.95C145.491 34.8659 145.85 35.7451 146.49 36.4C146.772 36.7192 147.118 36.9749 147.506 37.15C147.894 37.3251 148.314 37.4157 148.74 37.4157C149.166 37.4157 149.586 37.3251 149.974 37.15C150.362 36.9749 150.708 36.7192 150.99 36.4C151.597 35.7475 151.936 34.8909 151.94 34V33.95Z" fill="#263238"/>
<path d="M162.84 37.85C162.873 37.9485 162.886 38.0525 162.879 38.1561C162.871 38.2597 162.844 38.3608 162.797 38.4537C162.751 38.5465 162.687 38.6293 162.608 38.6974C162.53 38.7654 162.439 38.8172 162.34 38.85C162.237 38.861 162.133 38.861 162.03 38.85V38.85C161.835 38.8514 161.644 38.7958 161.48 38.69C161.291 38.5674 161.136 38.3988 161.03 38.2C160.804 37.6666 160.705 37.0882 160.74 36.51C160.738 36.2984 160.679 36.0913 160.57 35.91C160.461 35.7446 160.318 35.6047 160.15 35.5C159.906 35.3467 159.639 35.232 159.36 35.16H157.7V38.16C157.7 38.2633 157.679 38.3655 157.64 38.4608C157.6 38.5561 157.542 38.6425 157.468 38.7151C157.395 38.7877 157.307 38.8449 157.212 38.8835C157.116 38.9221 157.013 38.9413 156.91 38.94C156.808 38.94 156.707 38.9198 156.613 38.8804C156.519 38.8411 156.434 38.7835 156.362 38.7109C156.29 38.6384 156.234 38.5523 156.196 38.4577C156.158 38.3632 156.139 38.262 156.14 38.16V29.86C156.139 29.7585 156.158 29.6578 156.196 29.5637C156.234 29.4697 156.291 29.3843 156.363 29.3125C156.434 29.2408 156.52 29.1841 156.614 29.1459C156.708 29.1077 156.809 29.0886 156.91 29.09H159.43C160.226 29.09 160.989 29.4061 161.551 29.9687C162.114 30.5313 162.43 31.2943 162.43 32.09C162.428 32.5323 162.329 32.9688 162.139 33.3681C161.948 33.7675 161.672 34.1199 161.33 34.4C161.52 34.5457 161.686 34.7213 161.82 34.92C162.126 35.3677 162.29 35.8975 162.29 36.44C162.276 36.7177 162.293 36.996 162.34 37.27C162.467 37.3147 162.579 37.3917 162.667 37.4934C162.755 37.5952 162.814 37.7181 162.84 37.85ZM160.84 32.19C160.841 31.9987 160.805 31.8091 160.733 31.632C160.66 31.455 160.554 31.2939 160.419 31.1582C160.284 31.0225 160.124 30.9148 159.947 30.8413C159.771 30.7678 159.581 30.73 159.39 30.73H157.66V33.63H159.39C159.582 33.634 159.773 33.5997 159.952 33.5293C160.131 33.4588 160.293 33.3535 160.431 33.2196C160.569 33.0856 160.679 32.9256 160.754 32.7488C160.829 32.5721 160.869 32.3821 160.87 32.19H160.84Z" fill="#263238"/>
<path d="M171.63 37.85C171.665 37.9478 171.679 38.0514 171.673 38.155C171.667 38.2585 171.641 38.3597 171.595 38.4529C171.549 38.546 171.486 38.6291 171.407 38.6972C171.329 38.7654 171.238 38.8174 171.14 38.85C171.037 38.8603 170.933 38.8603 170.83 38.85V38.85C170.635 38.8514 170.444 38.7958 170.28 38.69C170.088 38.5703 169.933 38.401 169.83 38.2C169.6 37.6676 169.497 37.089 169.53 36.51C169.532 36.2978 169.473 36.0894 169.36 35.91C169.257 35.7401 169.112 35.5991 168.94 35.5C168.697 35.3449 168.43 35.2301 168.15 35.16H166.49V38.16C166.49 38.2633 166.47 38.3655 166.43 38.4608C166.39 38.5561 166.332 38.6426 166.258 38.7151C166.185 38.7877 166.097 38.8449 166.002 38.8835C165.906 38.9221 165.803 38.9413 165.7 38.94C165.598 38.94 165.497 38.9198 165.403 38.8804C165.309 38.8411 165.224 38.7835 165.152 38.7109C165.08 38.6384 165.024 38.5523 164.986 38.4577C164.948 38.3632 164.929 38.262 164.93 38.16V29.86C164.929 29.7585 164.948 29.6578 164.986 29.5638C165.024 29.4697 165.081 29.3843 165.153 29.3125C165.224 29.2408 165.31 29.1841 165.404 29.1459C165.498 29.1077 165.599 29.0887 165.7 29.09H168.22C168.843 29.0837 169.452 29.2712 169.963 29.6265C170.474 29.9819 170.862 30.4874 171.073 31.0731C171.284 31.6588 171.307 32.2957 171.14 32.8954C170.973 33.4951 170.624 34.0279 170.14 34.42C170.33 34.5657 170.496 34.7414 170.63 34.94C170.933 35.3886 171.094 35.9185 171.09 36.46C171.078 36.7381 171.098 37.0166 171.15 37.29C171.271 37.3349 171.379 37.4099 171.462 37.5079C171.546 37.6058 171.604 37.7236 171.63 37.85V37.85ZM169.63 32.19C169.631 31.9987 169.595 31.8091 169.523 31.632C169.45 31.455 169.344 31.2939 169.209 31.1582C169.074 31.0225 168.914 30.9148 168.737 30.8413C168.561 30.7678 168.371 30.73 168.18 30.73H166.45V33.63H168.18C168.372 33.634 168.563 33.5997 168.742 33.5293C168.921 33.4588 169.083 33.3536 169.221 33.2196C169.359 33.0856 169.469 32.9256 169.544 32.7488C169.619 32.5721 169.659 32.3821 169.66 32.19H169.63Z" fill="#263238"/>
<path d="M180.41 30.49L177.53 34.49V38.28C177.531 38.3828 177.512 38.4848 177.473 38.5801C177.435 38.6753 177.377 38.7618 177.305 38.8345C177.232 38.9072 177.145 38.9646 177.05 39.0034C176.955 39.0421 176.853 39.0613 176.75 39.06C176.546 39.0548 176.351 38.9707 176.208 38.8252C176.064 38.6798 175.983 38.4844 175.98 38.28V34.49L173.12 30.49C173.001 30.3269 172.951 30.123 172.982 29.9233C173.013 29.7236 173.122 29.5443 173.285 29.425C173.448 29.3057 173.652 29.256 173.852 29.2869C174.051 29.3179 174.231 29.4269 174.35 29.59L176.75 32.88L179.16 29.59C179.219 29.5079 179.294 29.4383 179.38 29.3851C179.466 29.3319 179.561 29.2961 179.661 29.2799C179.761 29.2636 179.863 29.2672 179.962 29.2904C180.06 29.3136 180.153 29.3559 180.235 29.415C180.317 29.4741 180.387 29.5488 180.44 29.6348C180.493 29.7208 180.529 29.8164 180.545 29.9163C180.561 30.0161 180.558 30.1181 180.535 30.2166C180.511 30.315 180.469 30.4079 180.41 30.49Z" fill="#263238"/>
<path d="M175 299H261.5L255 248L208 245.5L175 244L173 296L175 299Z" fill="#F8FF13"/>
<path fill-rule="evenodd" clip-rule="evenodd" d="M206.674 187.635L207.127 186.397H209.226C210.332 186.397 211.007 186.006 211.312 185.172L211.482 184.715C211.872 183.656 211.236 183 209.837 183H200.696L199 187.635H206.674ZM209.828 184.251L209.472 185.251H207.546L207.912 184.255L209.828 184.251ZM212.262 187.635L212.824 186.861H215.425V187.635H217.138V183H213.78L210.278 187.635H212.262ZM214.715 184.258H215.425V185.735H213.638L214.715 184.258ZM224.264 184.715L224.108 185.132H224.105C223.882 185.747 223.459 186.117 222.817 186.272L223.353 187.635H221.525L221.026 186.357H219.92L219.452 187.635H217.672L219.367 183H222.615C224.014 183 224.651 183.642 224.264 184.715ZM222.607 184.251H220.691L220.324 185.251H222.252L222.607 184.251ZM225.779 187.635L227.474 183H225.694L223.997 187.635H225.779ZM212.874 190.151L214.882 188.298H217.188L215.493 192.933H213.712L214.69 190.282L213.034 191.8H211.889L211.265 190.367L210.329 192.933H202.654L204.35 188.298H212.05L212.874 190.151ZM219.566 188.298L216.064 192.933H218.048L218.61 192.158H221.211V192.933H222.923V188.298H219.566ZM219.428 191.032L220.5 189.556H221.211V191.032H219.428ZM229.418 188.298L228.935 189.622H227.264L226.053 192.933H224.272L225.483 189.622H223.534L224.017 188.298H229.418ZM231.301 189.622H233.997L234.49 188.298H231.615C230.509 188.298 229.834 188.688 229.529 189.522L228.901 191.218C228.503 192.304 229.147 192.933 230.546 192.933H232.785L233.268 191.608H230.572L231.301 189.622ZM238.479 189.953L239.086 188.298H240.866L239.17 192.933H237.39L237.995 191.277H235.96L235.354 192.933H233.574L235.27 188.298H237.05L236.445 189.953H238.479Z" fill="black"/>
</svg>
